<svg width="21" height="32" viewBox="0 0 21 32" fill="none" xmlns="http://www.w3.org/2000/svg">
<g clip-path="url(#clip0_16_76)">
<path d="M11.539 0.0240053C0.914999 0.945005 0.0639987 12.349 0.0639987 12.349C-0.573001 18.51 3.676 20.495 4.88 21.769C6.084 23.042 7.147 25.592 7.147 25.592C11.185 27.363 13.804 24.459 13.804 24.459C14.23 22.121 17.771 15.676 17.771 15.676C24.783 2.149 15.065 -0.280995 11.539 0.0240053ZM8.396 6.56401C6.992 7.89701 5.315 8.41201 4.652 7.71401C3.989 7.01501 4.59 5.36701 5.994 4.03401C7.398 2.70101 9.074 2.18701 9.737 2.88601C10.401 3.58501 9.8 5.23101 8.396 6.56401Z" fill="#7AAFFF" fill-opacity="0.7"/>
<path d="M7.37 27.051C7.747 29.78 10.323 29.276 10.323 29.276C13.782 28.922 13.451 26.018 13.451 26.018C11.043 28.177 7.37 27.051 7.37 27.051Z" fill="#7AAFFF" fill-opacity="0.7"/>
<path d="M7.97501 30.003C8.24601 32.285 10.713 31.986 10.713 31.986C13.741 31.676 13.237 28.921 13.237 28.921C10.901 31.436 7.97501 30.003 7.97501 30.003Z" fill="#7AAFFF" fill-opacity="0.7"/>
</g>
<defs>
<clipPath id="clip0_16_76">
<rect width="20.252" height="32" fill="white"/>
</clipPath>
</defs>
</svg>
