<svg width="30" height="32" viewBox="0 0 30 32" fill="none" xmlns="http://www.w3.org/2000/svg">
<g clip-path="url(#clip0_3_27)">
<path d="M25.979 13.062V13.066C25.76 11.882 25.366 10.748 24.807 9.705L24.808 9.707L26.928 6.414L23.199 3.059L20.14 5.17C19.127 4.668 18.07 4.348 17.001 4.191L17.007 4.189L15.888 0L11.562 0.82L10.648 5.172L10.652 5.17C9.752 5.592 8.896 6.129 8.108 6.777L4.638 5.172L2.685 7.98L4.638 11.337L4.64 11.335C4.166 12.382 3.847 13.458 3.673 14.538V14.536L0 15.068V18.945L4.109 20.236C4.386 21.076 4.755 21.875 5.214 22.623L5.213 22.621L2.684 25.734L5.769 28.568L8.855 26.214C9.083 26.35 9.315 26.48 9.557 26.6C9.915 26.778 10.28 26.93 10.648 27.063L12.382 32H16.261L17.007 27.332C17.948 27.09 18.863 26.727 19.731 26.25L22.9 28.195L25.453 25.508L23.794 22.619C24.192 22.061 24.555 21.468 24.87 20.83C25.096 20.375 25.287 19.91 25.453 19.444V19.446L29.39 17.824V14.32L25.979 13.062ZM12.193 21.439C9.398 20.355 8.214 16.693 9.547 13.265C10.88 9.835 14.225 7.935 17.019 9.021C19.813 10.107 20.998 13.767 19.665 17.197C18.331 20.627 14.987 22.527 12.193 21.439Z" fill="#7AAFFF" fill-opacity="0.7"/>
</g>
<defs>
<clipPath id="clip0_3_27">
<rect width="29.389" height="32" fill="white"/>
</clipPath>
</defs>
</svg>
