<svg width="32" height="32" viewBox="0 0 32 32" fill="none" xmlns="http://www.w3.org/2000/svg">
<g clip-path="url(#clip0_3_37)">
<path d="M32 9.171C32 6.485 30.115 4.311 27.791 4.311C26.562 4.311 25.466 4.93 24.697 5.901C23.285 2.599 22.06 0.0400026 21.703 0.00500262C20.703 -0.0929974 15.61 2.719 15.625 3.338C15.64 3.957 16.994 5.277 17.133 6.57C17.434 9.344 15.62 11.461 13.226 12.078C9.902 12.934 8.823 8.13 8.282 7.866C7.741 7.601 0.916 11.159 0.953 12.385C0.968 12.848 2.286 15.629 3.974 18.922C1.761 19.062 0 21.161 0 23.753C0 26.438 1.884 28.612 4.208 28.612C5.771 28.612 7.12 27.616 7.846 26.153C9.45 29.015 10.795 31.208 11.141 31.299C12.13 31.564 17.677 28.182 17.705 27.611C17.732 27.041 16.222 25.614 16.075 24.257C15.775 21.482 17.609 19.443 19.982 18.749C23.717 17.658 24.79 23.334 24.991 23.517C25.191 23.701 30.054 21.318 30.24 20.568C30.306 20.295 29.312 17.474 27.98 14.008C30.214 13.894 32 11.78 32 9.171Z" fill="#7AAFFF" fill-opacity="0.7"/>
</g>
<defs>
<clipPath id="clip0_3_37">
<rect width="32" height="31.314" fill="white"/>
</clipPath>
</defs>
</svg>
